<mxfile host="Electron" modified="2023-06-27T18:49:14.447Z" agent="Mozilla/5.0 (Windows NT 10.0; Win64; x64) AppleWebKit/537.36 (KHTML, like Gecko) draw.io/21.3.7 Chrome/112.0.5615.204 Electron/24.5.0 Safari/537.36" etag="7xlnM-58_bEAxRhKxHT_" version="21.3.7" type="device">
  <diagram name="Page-1" id="fe_iULXWw6AKQvwPo4Bn">
    <mxGraphModel dx="1224" dy="878" grid="1" gridSize="10" guides="1" tooltips="1" connect="1" arrows="1" fold="1" page="1" pageScale="1" pageWidth="850" pageHeight="1400" math="0" shadow="0">
      <root>
        <mxCell id="0" />
        <mxCell id="1" parent="0" />
        <mxCell id="GH07VqHXkLkS_JzQgoxv-13" value="AWS Cloud" style="points=[[0,0],[0.25,0],[0.5,0],[0.75,0],[1,0],[1,0.25],[1,0.5],[1,0.75],[1,1],[0.75,1],[0.5,1],[0.25,1],[0,1],[0,0.75],[0,0.5],[0,0.25]];outlineConnect=0;gradientColor=none;html=1;whiteSpace=wrap;fontSize=12;fontStyle=0;container=1;pointerEvents=0;collapsible=0;recursiveResize=0;shape=mxgraph.aws4.group;grIcon=mxgraph.aws4.group_aws_cloud_alt;strokeColor=#232F3E;fillColor=none;verticalAlign=top;align=left;spacingLeft=30;fontColor=#232F3E;dashed=0;" vertex="1" parent="1">
          <mxGeometry x="150" y="250" width="650" height="470" as="geometry" />
        </mxCell>
        <mxCell id="GH07VqHXkLkS_JzQgoxv-8" value="Messasge" style="swimlane;childLayout=stackLayout;horizontal=1;startSize=50;horizontalStack=0;rounded=1;fontSize=14;fontStyle=0;strokeWidth=2;resizeParent=0;resizeLast=1;shadow=0;dashed=0;align=center;arcSize=4;whiteSpace=wrap;html=1;" vertex="1" parent="GH07VqHXkLkS_JzQgoxv-13">
          <mxGeometry x="13" y="279" width="160" height="120" as="geometry" />
        </mxCell>
        <mxCell id="GH07VqHXkLkS_JzQgoxv-9" value="To:&amp;nbsp;&lt;br&gt;Subbject:&amp;nbsp;&lt;br&gt;Message:&lt;br&gt;Link: asfasdf" style="align=left;strokeColor=none;fillColor=none;spacingLeft=4;fontSize=12;verticalAlign=top;resizable=0;rotatable=0;part=1;html=1;" vertex="1" parent="GH07VqHXkLkS_JzQgoxv-8">
          <mxGeometry y="50" width="160" height="70" as="geometry" />
        </mxCell>
        <mxCell id="GH07VqHXkLkS_JzQgoxv-2" value="EventBridge" style="sketch=0;points=[[0,0,0],[0.25,0,0],[0.5,0,0],[0.75,0,0],[1,0,0],[0,1,0],[0.25,1,0],[0.5,1,0],[0.75,1,0],[1,1,0],[0,0.25,0],[0,0.5,0],[0,0.75,0],[1,0.25,0],[1,0.5,0],[1,0.75,0]];outlineConnect=0;fontColor=#232F3E;gradientColor=#FF4F8B;gradientDirection=north;fillColor=#BC1356;strokeColor=#ffffff;dashed=0;verticalLabelPosition=bottom;verticalAlign=top;align=center;html=1;fontSize=12;fontStyle=0;aspect=fixed;shape=mxgraph.aws4.resourceIcon;resIcon=mxgraph.aws4.eventbridge;" vertex="1" parent="GH07VqHXkLkS_JzQgoxv-13">
          <mxGeometry x="60" y="76" width="68" height="68" as="geometry" />
        </mxCell>
        <mxCell id="GH07VqHXkLkS_JzQgoxv-10" value="" style="endArrow=classic;html=1;rounded=0;exitX=0.5;exitY=0;exitDx=0;exitDy=0;" edge="1" parent="GH07VqHXkLkS_JzQgoxv-13" source="GH07VqHXkLkS_JzQgoxv-8" target="GH07VqHXkLkS_JzQgoxv-2">
          <mxGeometry width="50" height="50" relative="1" as="geometry">
            <mxPoint x="170" y="140" as="sourcePoint" />
            <mxPoint x="220" y="90" as="targetPoint" />
          </mxGeometry>
        </mxCell>
        <mxCell id="GH07VqHXkLkS_JzQgoxv-15" value="SQS Queeue" style="sketch=0;points=[[0,0,0],[0.25,0,0],[0.5,0,0],[0.75,0,0],[1,0,0],[0,1,0],[0.25,1,0],[0.5,1,0],[0.75,1,0],[1,1,0],[0,0.25,0],[0,0.5,0],[0,0.75,0],[1,0.25,0],[1,0.5,0],[1,0.75,0]];outlineConnect=0;fontColor=#232F3E;gradientColor=#FF4F8B;gradientDirection=north;fillColor=#BC1356;strokeColor=#ffffff;dashed=0;verticalLabelPosition=bottom;verticalAlign=top;align=center;html=1;fontSize=12;fontStyle=0;aspect=fixed;shape=mxgraph.aws4.resourceIcon;resIcon=mxgraph.aws4.sqs;" vertex="1" parent="GH07VqHXkLkS_JzQgoxv-13">
          <mxGeometry x="250" y="70" width="78" height="78" as="geometry" />
        </mxCell>
        <mxCell id="GH07VqHXkLkS_JzQgoxv-16" value="Auto Scaling group" style="points=[[0,0],[0.25,0],[0.5,0],[0.75,0],[1,0],[1,0.25],[1,0.5],[1,0.75],[1,1],[0.75,1],[0.5,1],[0.25,1],[0,1],[0,0.75],[0,0.5],[0,0.25]];outlineConnect=0;gradientColor=none;html=1;whiteSpace=wrap;fontSize=12;fontStyle=0;container=1;pointerEvents=0;collapsible=0;recursiveResize=0;shape=mxgraph.aws4.groupCenter;grIcon=mxgraph.aws4.group_auto_scaling_group;grStroke=1;strokeColor=#D86613;fillColor=none;verticalAlign=top;align=center;fontColor=#D86613;dashed=1;spacingTop=25;" vertex="1" parent="GH07VqHXkLkS_JzQgoxv-13">
          <mxGeometry x="420" y="12" width="190" height="164.75" as="geometry" />
        </mxCell>
        <mxCell id="GH07VqHXkLkS_JzQgoxv-14" value="ECS Fargage" style="sketch=0;points=[[0,0,0],[0.25,0,0],[0.5,0,0],[0.75,0,0],[1,0,0],[0,1,0],[0.25,1,0],[0.5,1,0],[0.75,1,0],[1,1,0],[0,0.25,0],[0,0.5,0],[0,0.75,0],[1,0.25,0],[1,0.5,0],[1,0.75,0]];outlineConnect=0;fontColor=#232F3E;gradientColor=#F78E04;gradientDirection=north;fillColor=#D05C17;strokeColor=#ffffff;dashed=0;verticalLabelPosition=bottom;verticalAlign=top;align=center;html=1;fontSize=12;fontStyle=0;aspect=fixed;shape=mxgraph.aws4.resourceIcon;resIcon=mxgraph.aws4.fargate;" vertex="1" parent="GH07VqHXkLkS_JzQgoxv-16">
          <mxGeometry x="66" y="68" width="59" height="59" as="geometry" />
        </mxCell>
        <mxCell id="GH07VqHXkLkS_JzQgoxv-17" value="SES Template&amp;nbsp;&lt;br&gt;And Send" style="outlineConnect=0;dashed=0;verticalLabelPosition=bottom;verticalAlign=top;align=center;html=1;shape=mxgraph.aws3.ses;fillColor=#D9A741;gradientColor=none;" vertex="1" parent="GH07VqHXkLkS_JzQgoxv-13">
          <mxGeometry x="475.25" y="310" width="79.5" height="93" as="geometry" />
        </mxCell>
        <mxCell id="GH07VqHXkLkS_JzQgoxv-18" value="" style="endArrow=classic;html=1;rounded=0;entryX=0;entryY=0.5;entryDx=0;entryDy=0;entryPerimeter=0;" edge="1" parent="GH07VqHXkLkS_JzQgoxv-13" source="GH07VqHXkLkS_JzQgoxv-2" target="GH07VqHXkLkS_JzQgoxv-15">
          <mxGeometry width="50" height="50" relative="1" as="geometry">
            <mxPoint x="180" y="220" as="sourcePoint" />
            <mxPoint x="230" y="170" as="targetPoint" />
          </mxGeometry>
        </mxCell>
        <mxCell id="GH07VqHXkLkS_JzQgoxv-19" value="" style="endArrow=classic;html=1;rounded=0;entryX=0;entryY=0.5;entryDx=0;entryDy=0;entryPerimeter=0;exitX=1;exitY=0.5;exitDx=0;exitDy=0;exitPerimeter=0;" edge="1" parent="GH07VqHXkLkS_JzQgoxv-13" source="GH07VqHXkLkS_JzQgoxv-15" target="GH07VqHXkLkS_JzQgoxv-14">
          <mxGeometry width="50" height="50" relative="1" as="geometry">
            <mxPoint x="240" y="233" as="sourcePoint" />
            <mxPoint x="362" y="237" as="targetPoint" />
          </mxGeometry>
        </mxCell>
        <mxCell id="GH07VqHXkLkS_JzQgoxv-20" value="" style="endArrow=classic;html=1;rounded=0;" edge="1" parent="GH07VqHXkLkS_JzQgoxv-13" source="GH07VqHXkLkS_JzQgoxv-14" target="GH07VqHXkLkS_JzQgoxv-17">
          <mxGeometry width="50" height="50" relative="1" as="geometry">
            <mxPoint x="320" y="230" as="sourcePoint" />
            <mxPoint x="478" y="269" as="targetPoint" />
          </mxGeometry>
        </mxCell>
      </root>
    </mxGraphModel>
  </diagram>
</mxfile>
